solid OpenSCAD_Model
  facet normal -1 -0 -0
    outer loop
      vertex -1850 0 0
      vertex -1850 0 1
      vertex -1850 1 0
    endloop
  endfacet
  facet normal -1 0 0
    outer loop
      vertex -1850 1 0
      vertex -1850 0 1
      vertex -1850 1 1
    endloop
  endfacet
  facet normal 0 -1 0
    outer loop
      vertex -1850 0 1
      vertex -1850 0 0
      vertex -1849 0 0
    endloop
  endfacet
  facet normal 0 -1 0
    outer loop
      vertex -1849 0 1
      vertex -1850 0 1
      vertex -1849 0 0
    endloop
  endfacet
  facet normal -0 -0 -1
    outer loop
      vertex -1850 0 0
      vertex -1850 1 0
      vertex -1849 0 0
    endloop
  endfacet
  facet normal 0 0 -1
    outer loop
      vertex -1849 0 0
      vertex -1850 1 0
      vertex -1849 1 0
    endloop
  endfacet
  facet normal 0 1 0
    outer loop
      vertex -1850 1 0
      vertex -1850 1 1
      vertex -1849 1 0
    endloop
  endfacet
  facet normal 0 1 0
    outer loop
      vertex -1849 1 0
      vertex -1850 1 1
      vertex -1849 1 1
    endloop
  endfacet
  facet normal 0 -0 1
    outer loop
      vertex -1850 1 1
      vertex -1850 0 1
      vertex -1849 0 1
    endloop
  endfacet
  facet normal 0 0 1
    outer loop
      vertex -1849 1 1
      vertex -1850 1 1
      vertex -1849 0 1
    endloop
  endfacet
  facet normal 1 0 -0
    outer loop
      vertex -1849 0 1
      vertex -1849 0 0
      vertex -1849 1 0
    endloop
  endfacet
  facet normal 1 0 0
    outer loop
      vertex -1849 1 1
      vertex -1849 0 1
      vertex -1849 1 0
    endloop
  endfacet
  facet normal -1 -0 -0
    outer loop
      vertex 0 0 0
      vertex 0 0 145
      vertex 0 4100 0
    endloop
  endfacet
  facet normal -1 0 0
    outer loop
      vertex 0 4100 0
      vertex 0 0 145
      vertex 0 4100 145
    endloop
  endfacet
  facet normal 0 -1 0
    outer loop
      vertex 0 0 145
      vertex 0 0 0
      vertex 55 0 0
    endloop
  endfacet
  facet normal 0 -1 0
    outer loop
      vertex 55 0 145
      vertex 0 0 145
      vertex 55 0 0
    endloop
  endfacet
  facet normal -0 -0 -1
    outer loop
      vertex 0 0 0
      vertex 0 4100 0
      vertex 55 0 0
    endloop
  endfacet
  facet normal 0 0 -1
    outer loop
      vertex 55 0 0
      vertex 0 4100 0
      vertex 55 4100 0
    endloop
  endfacet
  facet normal 0 1 0
    outer loop
      vertex 0 4100 0
      vertex 0 4100 145
      vertex 55 4100 0
    endloop
  endfacet
  facet normal 0 1 0
    outer loop
      vertex 55 4100 0
      vertex 0 4100 145
      vertex 55 4100 145
    endloop
  endfacet
  facet normal 0 -0 1
    outer loop
      vertex 0 4100 145
      vertex 0 0 145
      vertex 55 0 145
    endloop
  endfacet
  facet normal 0 0 1
    outer loop
      vertex 55 4100 145
      vertex 0 4100 145
      vertex 55 0 145
    endloop
  endfacet
  facet normal 1 0 -0
    outer loop
      vertex 55 0 145
      vertex 55 0 0
      vertex 55 4100 0
    endloop
  endfacet
  facet normal 1 0 0
    outer loop
      vertex 55 4100 145
      vertex 55 0 145
      vertex 55 4100 0
    endloop
  endfacet
  facet normal -1 -0 -0
    outer loop
      vertex 1850 0 0
      vertex 1850 0 145
      vertex 1850 4100 0
    endloop
  endfacet
  facet normal -1 0 0
    outer loop
      vertex 1850 4100 0
      vertex 1850 0 145
      vertex 1850 4100 145
    endloop
  endfacet
  facet normal 0 -1 0
    outer loop
      vertex 1850 0 145
      vertex 1850 0 0
      vertex 1905 0 0
    endloop
  endfacet
  facet normal 0 -1 0
    outer loop
      vertex 1905 0 145
      vertex 1850 0 145
      vertex 1905 0 0
    endloop
  endfacet
  facet normal -0 -0 -1
    outer loop
      vertex 1850 0 0
      vertex 1850 4100 0
      vertex 1905 0 0
    endloop
  endfacet
  facet normal 0 0 -1
    outer loop
      vertex 1905 0 0
      vertex 1850 4100 0
      vertex 1905 4100 0
    endloop
  endfacet
  facet normal 0 1 0
    outer loop
      vertex 1850 4100 0
      vertex 1850 4100 145
      vertex 1905 4100 0
    endloop
  endfacet
  facet normal 0 1 0
    outer loop
      vertex 1905 4100 0
      vertex 1850 4100 145
      vertex 1905 4100 145
    endloop
  endfacet
  facet normal 0 -0 1
    outer loop
      vertex 1850 4100 145
      vertex 1850 0 145
      vertex 1905 0 145
    endloop
  endfacet
  facet normal 0 0 1
    outer loop
      vertex 1905 4100 145
      vertex 1850 4100 145
      vertex 1905 0 145
    endloop
  endfacet
  facet normal 1 0 -0
    outer loop
      vertex 1905 0 145
      vertex 1905 0 0
      vertex 1905 4100 0
    endloop
  endfacet
  facet normal 1 0 0
    outer loop
      vertex 1905 4100 145
      vertex 1905 0 145
      vertex 1905 4100 0
    endloop
  endfacet
endsolid OpenSCAD_Model
